<svg xmlns="http://www.w3.org/2000/svg" xmlns:xlink="http://www.w3.org/1999/xlink" width="123.703" height="111.439" viewBox="0 0 123.703 111.439">
  <defs>
    <filter id="logo" x="0" y="0" width="123.703" height="111.439" filterUnits="userSpaceOnUse">
      <feOffset dy="3" input="SourceAlpha"/>
      <feGaussianBlur stdDeviation="3" result="blur"/>
      <feFlood flood-opacity="0.161"/>
      <feComposite operator="in" in2="blur"/>
      <feComposite in="SourceGraphic"/>
    </filter>
  </defs>
  <g id="logo-2" data-name="logo" transform="translate(9 6)">
    <g transform="matrix(1, 0, 0, 1, -9, -6)" filter="url(#logo)">
      <path id="logo-3" data-name="logo" d="M74.322-7.185l.1.031v3.3h-.012A2.736,2.736,0,0,1,71.73-1.119h-3.84V2.565C67.9,3.754,68.36,4.3,69.4,4.317H81.562c1.033-.012,1.491-.562,1.511-1.752V-13.567c-.02-1.194-.478-1.752-1.519-1.756H69.4c-1.041,0-1.5.562-1.51,1.756v3.679h3.84A2.631,2.631,0,0,1,74.322-7.185ZM96.681,15.654V-26.3l0-.294A2.94,2.94,0,0,0,93.7-29.848H60.383a2.935,2.935,0,0,0-2.966,3.255l0,.294V-9.888h3.022v-8.283c0-2.9,2.1-5.154,4.309-5.154H86.219c2.2,0,4.293,2.251,4.293,5.154V7.16c0,2.9-2.093,5.155-4.293,5.155H64.744c-2.2,0-4.309-2.255-4.309-5.155V-1.119H57.413v19.96H93.644C95.209,18.841,96.533,18,96.681,15.654ZM37.9,2.565V-1.119H34.042A2.74,2.74,0,0,1,31.37-3.853h0v-3.3h0a2.734,2.734,0,0,1,2.672-2.734H37.9v-3.679c-.023-1.194-.473-1.752-1.517-1.756H24.227c-1.041,0-1.494.562-1.514,1.756V2.565c.02,1.189.473,1.739,1.514,1.752H36.38C37.424,4.3,37.875,3.754,37.9,2.565ZM105.7-29.642V18.4c.015,5.543-4.177,10.1-9.355,10.121H94.693v.006H57.413v4.385l9.424,10.9V31.9h7.249V53.91H66.478s-7.961-9.74-9.065-11.875V53.91H48.391V-1.119H45.347V7.16c0,2.9-2.1,5.155-4.294,5.155H19.562c-2.2,0-4.3-2.255-4.3-5.155v-25.33c0-2.9,2.1-5.154,4.3-5.154H41.053c2.192,0,4.294,2.251,4.294,5.154v8.283h3.044V-29.642h0c.082-5.486,4.3-9.909,9.429-9.888l2.536.007v-.007H94.693v0l1.573,0c5.134-.022,9.335,4.4,9.429,9.888ZM0,18.4v-.23H0V-29.641H0c.09-5.486,4.3-9.908,9.429-9.888l1.573,0v0H45.347v9.681H12a2.945,2.945,0,0,0-2.974,3.256V15.653c.149,2.348,1.464,3.189,3.037,3.189H45.347v9.685H11.006v0H9.355C4.176,28.5-.023,23.944,0,18.4ZM13.123,48.566a1.9,1.9,0,0,0,1.061-1.536,1.979,1.979,0,0,0-1.432-1.719,7.633,7.633,0,0,0-2.564-.291H8.156V49h2.368A4.851,4.851,0,0,0,13.123,48.566ZM8.156,36.6v3.716h2.122a4.349,4.349,0,0,0,2.474-.419,1.7,1.7,0,0,0,.865-1.421c0-1.671-1.79-1.876-3.5-1.876Zm8.959,5.922c3.343.458,5.628,2.369,5.628,4.993a5.8,5.8,0,0,1-2.966,5.154c-2.243,1.231-5.366,1.245-7.969,1.245H0V31.9H12.684a13.19,13.19,0,0,1,6.263,1.121,5.447,5.447,0,0,1,3.083,4.632c0,2.331-1.972,4.259-4.915,4.788ZM30.274,31.9h8.531L47.124,53.91H39.433l-1.5-4.362H30.9L29.273,53.91h-7.23Zm4.141,6.5-2.178,6.363h4.321Zm61.436-6.5h8.006L96.52,39.943l9.092,13.967H95.852l-4.991-8.3-3.011,3.2v5.1h-8.4V31.9h8.4V40.96Z" transform="translate(9 45.53)" fill="#fff" fill-rule="evenodd"/>
    </g>
  </g>
</svg>
